<svg width="25" height="24" viewBox="0 0 25 24" fill="none" xmlns="http://www.w3.org/2000/svg">
<circle cx="12.4172" cy="11.8542" r="11.3542" stroke="#D9DDE7"/>
<path d="M18.7167 6.50644L16.2699 16.9869C16.1548 17.4805 15.6222 17.7348 15.1856 17.5004L12.091 15.8402L10.6277 18.3281C10.2296 19.0062 9.22209 18.7121 9.22209 17.9192V15.147C9.22209 14.9326 9.3084 14.7282 9.45715 14.5786L15.4879 8.59547C15.4831 8.52068 15.4063 8.45591 15.3296 8.51066L8.13319 13.716L5.71521 12.4197C5.14915 12.1155 5.17314 11.2629 5.75837 10.9987L17.6806 5.599C18.2515 5.33969 18.8657 5.87323 18.7169 6.50639L18.7167 6.50644Z" fill="#D9DDE7"/>
</svg>
