<svg width="24" height="24" viewBox="0 0 24 24" fill="none" xmlns="http://www.w3.org/2000/svg">
<circle cx="11.8542" cy="11.8542" r="11.3542" stroke="#D9DDE7"/>
<path d="M11.8321 15.6488C12.1859 15.6488 12.3306 15.4241 12.3265 15.1424C12.3085 14.0813 12.7414 13.51 13.523 14.2545C14.3876 15.0782 14.5666 15.6488 15.6165 15.6488H17.4759C17.9454 15.6488 18.1302 15.5049 18.1302 15.2791C18.1302 14.8014 17.3045 13.9584 16.6049 13.3395C15.6253 12.4733 15.5793 12.4528 16.4231 11.41C17.4696 10.1153 18.8385 8.45636 17.6276 8.45636H15.3144C14.8658 8.45636 14.8333 8.69714 14.6735 9.05582C14.0953 10.3549 12.9965 12.0377 12.5793 11.7803C12.1429 11.5118 12.3428 10.4485 12.3759 8.86818C12.3847 8.45082 12.3823 8.16465 11.7129 8.0163C11.3475 7.93604 10.9918 7.90283 10.6618 7.90283C9.34103 7.90283 8.42992 8.43034 8.94765 8.52223C9.86051 8.68441 9.77277 10.5658 9.5601 11.3784C9.18938 12.7932 7.79598 10.2581 7.2155 8.99549C7.07546 8.69216 7.03246 8.45636 6.53275 8.45636H4.64138C4.3555 8.45636 4.18408 8.54492 4.18408 8.74197C4.18408 9.0752 5.90403 12.4617 7.54612 14.1499C9.14754 15.7966 10.7304 15.6488 11.8321 15.6488V15.6488Z" fill="#D9DDE7"/>
</svg>
